<?xml version="1.0" encoding="utf-8"?>
<!-- Generator: Adobe Illustrator 15.0.0, SVG Export Plug-In . SVG Version: 6.00 Build 0)  -->
<!DOCTYPE svg PUBLIC "-//W3C//DTD SVG 1.1//EN" "http://www.w3.org/Graphics/SVG/1.1/DTD/svg11.dtd">
<svg version="1.1" id="Layer_1" xmlns="http://www.w3.org/2000/svg" xmlns:xlink="http://www.w3.org/1999/xlink" x="0px" y="0px"
	 width="140px" height="60px" viewBox="0 0 140 60" enable-background="new 0 0 140 60" xml:space="preserve">
<g>
	<g>
		<g>
			<path fill="#B59758" d="M34.5371094,7.7587891v0.4082031c-0.5537109,0.0400391-1.0136719,0.2695312-1.3837891,0.6894531
				c-0.3671875,0.4189453-0.7353516,1.1416016-1.1025391,2.1660156l-3.9589844,10.9990234h-0.4375l-3.8349609-10.3857422
				l-3.7275391,10.3857422h-0.4023438l-4.2949219-11.6123047c-0.2392578-0.6386719-0.4541016-1.1123047-0.640625-1.4208984
				c-0.1894531-0.3066406-0.3925781-0.5205078-0.6074219-0.640625c-0.2158203-0.1201172-0.5957031-0.1806641-1.1396484-0.1806641
				V7.7587891h5.2167969v0.4082031c-0.8271484,0.0966797-1.2392578,0.3994141-1.2392578,0.9121094
				c0,0.2070312,0.0595703,0.4697266,0.1806641,0.7910156l3.2958984,8.9355469l2.9863281-8.1796875l-0.3115234-0.9121094
				C22.9375,9.1455078,22.6943359,8.7470703,22.4052734,8.5146484c-0.2851562-0.2314453-0.6962891-0.3476562-1.2304688-0.3476562
				V7.7587891h5.1445312v0.4082031c-0.9101562,0-1.3642578,0.2792969-1.3642578,0.8398438
				c0,0.2324219,0.0634766,0.5273438,0.1914062,0.8896484l3.2900391,8.9091797l2.8867188-7.8779297
				c0.2324219-0.6328125,0.3466797-1.1513672,0.3466797-1.5595703c0-0.8173828-0.4677734-1.2246094-1.4042969-1.2246094V7.7587891
				H34.5371094z"/>
			<path fill="#B59758" d="M39.8417969,21.8291016v-0.4082031c0.8056641,0,1.2089844-0.2822266,1.2089844-0.8427734
				c0-0.1601562-0.0341797-0.3398438-0.1064453-0.5410156l-1.3066406-3.9042969h-4.5175781l-0.9599609,2.8212891
				c-0.2402344,0.7138672-0.3603516,1.2314453-0.3603516,1.5527344c0,0.59375,0.3710938,0.8974609,1.1123047,0.9140625v0.4082031
				h-3.6347656v-0.4082031c0.5205078-0.0722656,0.9248047-0.2441406,1.2128906-0.5175781
				c0.2890625-0.2724609,0.5810547-0.8378906,0.8769531-1.6943359l3.8896484-11.6064453h1.4482422l4.0859375,12.1220703
				C43.03125,20.4375,43.28125,20.9003906,43.5400391,21.1083984c0.2607422,0.2070312,0.6777344,0.3125,1.2548828,0.3125v0.4082031
				H39.8417969z M35.3808594,15.2666016h3.9667969l-1.9951172-5.9609375L35.3808594,15.2666016z"/>
			<path fill="#B59758" d="M50.1533203,15.3154297H49.015625v3.8701172c0,0.8320312,0.1162109,1.4140625,0.3525391,1.7421875
				s0.6533203,0.4931641,1.2529297,0.4931641v0.4082031h-5.0615234v-0.4082031c0.625,0,1.046875-0.1640625,1.265625-0.4931641
				c0.2207031-0.3271484,0.3300781-0.9072266,0.3300781-1.7392578v-8.8261719c0-0.8300781-0.1083984-1.4042969-0.3242188-1.7207031
				c-0.2148438-0.3173828-0.6396484-0.4746094-1.2714844-0.4746094V7.7587891h5.7705078
				c1.4228516,0,2.5605469,0.3476562,3.4111328,1.0380859c0.8515625,0.6923828,1.2783203,1.5712891,1.2783203,2.6435547
				c0,1.7285156-0.9677734,2.8798828-2.9033203,3.4560547c0.4248047,0.2714844,0.8398438,0.6435547,1.2441406,1.1201172
				c0.40625,0.4765625,0.9365234,1.2675781,1.5927734,2.3710938c0.7363281,1.2265625,1.3105469,2.0292969,1.7246094,2.4121094
				c0.4160156,0.3818359,0.8466797,0.5898438,1.2919922,0.6210938v0.4082031h-2.8789062
				c-0.5917969-0.7128906-1.3076172-1.7587891-2.1464844-3.1367188c-0.8945312-1.4511719-1.5966797-2.375-2.1035156-2.7753906
				C51.3310547,15.5166016,50.7705078,15.3154297,50.1533203,15.3154297z M50.4902344,8.2978516H49.015625v6.4306641h1.7255859
				c1.03125,0,1.8417969-0.296875,2.4287109-0.8876953c0.5888672-0.5927734,0.8818359-1.3759766,0.8818359-2.3515625
				c0-0.9511719-0.3251953-1.7207031-0.9765625-2.3085938C52.4228516,8.5927734,51.5615234,8.2978516,50.4902344,8.2978516z"/>
			<path fill="#B59758" d="M76.2431641,7.5556641v4.1972656h-0.4179688c-0.3369141-1.3017578-0.875-2.2626953-1.6162109-2.8789062
				c-0.7392578-0.6152344-1.7246094-0.9228516-2.9560547-0.9228516c-1.5986328,0-2.8642578,0.5751953-3.8007812,1.7275391
				c-0.9365234,1.1503906-1.4033203,2.6855469-1.4033203,4.6054688c0,2.1035156,0.4921875,3.796875,1.4794922,5.078125
				c0.9892578,1.2851562,2.2822266,1.9257812,3.8808594,1.9257812c2.2148438,0,3.8505859-1.0302734,4.90625-3.09375
				L76.6875,18.5429688c-0.4736328,1.1191406-1.234375,2.0058594-2.2861328,2.6552734
				c-1.0498047,0.6523438-2.2480469,0.9785156-3.5917969,0.9785156c-1.2724609,0-2.4492188-0.3007812-3.5322266-0.9003906
				s-1.9189453-1.4257812-2.5058594-2.4755859c-0.5878906-1.0537109-0.8808594-2.2626953-0.8808594-3.6279297
				c0-2.2392578,0.6865234-4.09375,2.0634766-5.5605469c1.3740234-1.4667969,3.109375-2.2011719,5.203125-2.2011719
				c0.7050781,0,1.5957031,0.1259766,2.6738281,0.3730469C74.4404297,7.9267578,74.859375,8,75.0917969,8
				c0.3603516,0,0.6123047-0.1494141,0.7558594-0.4443359H76.2431641z"/>
			<path fill="#B59758" d="M88.2802734,19.1855469v-4.0859375h-7.6650391v4.0859375
				c0,0.8320312,0.1181641,1.4140625,0.3564453,1.7421875c0.2333984,0.328125,0.6601562,0.4931641,1.2763672,0.4931641v0.4082031
				h-5.0859375v-0.4082031c0.6142578,0,1.0361328-0.1660156,1.2587891-0.4980469
				c0.2246094-0.3339844,0.3359375-0.9101562,0.3359375-1.734375v-8.7763672c0-0.8642578-0.1123047-1.4541016-0.3417969-1.7705078
				C78.1875,8.3242188,77.7695312,8.1669922,77.1621094,8.1669922V7.7587891h5.0859375v0.4082031
				c-0.6162109,0-1.0429688,0.1699219-1.2763672,0.5107422c-0.2382812,0.3388672-0.3564453,0.9179688-0.3564453,1.7314453v4.0068359
				h7.6650391v-4.0068359c0-0.8613281-0.1113281-1.4511719-0.3300781-1.7675781
				c-0.2197266-0.3173828-0.6337891-0.4746094-1.2412109-0.4746094V7.7587891h5.0380859v0.4082031
				c-0.5996094,0-1.0166016,0.1650391-1.2480469,0.4921875c-0.2314453,0.328125-0.3476562,0.9121094-0.3476562,1.7529297v8.7763672
				c0,0.8388672,0.1162109,1.4208984,0.3476562,1.7460938c0.2314453,0.3242188,0.6484375,0.4863281,1.2480469,0.4863281v0.4082031
				h-5.0380859v-0.4082031c0.6240234,0,1.0410156-0.1621094,1.2529297-0.4863281
				C88.1738281,20.609375,88.2802734,20.0263672,88.2802734,19.1855469z"/>
			<path fill="#B59758" d="M101.7949219,13.0849609h0.4208984v3.4179688h-0.4208984
				c-0.1523438-0.5996094-0.3359375-0.9765625-0.5527344-1.1269531c-0.2148438-0.1523438-0.6875-0.2275391-1.4150391-0.2275391
				h-3.4892578v5.0351562c0,0.3544922,0.078125,0.6025391,0.2353516,0.7451172
				c0.15625,0.1435547,0.4199219,0.2158203,0.7958984,0.2158203h2.4580078c0.8798828,0,1.4882812-0.046875,1.8242188-0.1435547
				c0.3339844-0.0957031,0.6191406-0.2744141,0.8505859-0.5351562c0.2324219-0.2587891,0.4804688-0.6787109,0.7451172-1.2636719
				h0.4189453l-0.6484375,2.6269531H92.8837891v-0.4082031c0.6318359,0,1.0556641-0.1621094,1.2705078-0.4863281
				c0.2158203-0.3251953,0.3251953-0.8984375,0.3251953-1.7236328v-8.7988281c0-0.8564453-0.1123047-1.4443359-0.3359375-1.7646484
				c-0.2246094-0.3193359-0.6445312-0.4804688-1.2597656-0.4804688V7.7587891h10.1337891v2.3505859h-0.2636719
				c-0.1416016-0.6708984-0.3496094-1.1162109-0.6181641-1.3369141c-0.2675781-0.21875-0.8486328-0.328125-1.7441406-0.328125
				h-4.0537109v6.0195312h3.9335938c0.5371094,0,0.9033203-0.0966797,1.0986328-0.2871094
				C101.5654297,13.9853516,101.7070312,13.6201172,101.7949219,13.0849609z"/>
			<path fill="#B59758" d="M111.6855469,7.5556641h0.3955078v3.2988281h-0.4189453
				c-0.0966797-0.9121094-0.4267578-1.6230469-0.9902344-2.1347656c-0.5634766-0.5126953-1.2734375-0.7685547-2.1279297-0.7685547
				c-0.7607422,0-1.3740234,0.1923828-1.8369141,0.5751953c-0.4638672,0.3857422-0.6953125,0.8964844-0.6953125,1.5371094
				c0,0.5908203,0.1923828,1.1298828,0.5751953,1.6171875c0.3847656,0.4882812,1.2177734,1.1152344,2.4960938,1.8837891
				c1.4873047,0.8876953,2.4863281,1.6630859,2.9980469,2.3261719c0.5117188,0.6650391,0.7675781,1.4248047,0.7675781,2.2783203
				c0,1.1054688-0.3916016,2.0488281-1.1748047,2.8320312c-0.78125,0.7841797-1.7246094,1.1757812-2.8251953,1.1757812
				c-0.6396484,0-1.453125-0.1777344-2.4433594-0.5283203c-0.4072266-0.1435547-0.6660156-0.2148438-0.7773438-0.2148438
				c-0.2324219,0-0.4111328,0.1787109-0.5390625,0.5390625h-0.4199219v-3.8037109h0.4199219
				c0.0068359,1.0488281,0.3505859,1.8886719,1.0224609,2.5205078c0.6738281,0.6308594,1.4638672,0.9462891,2.3652344,0.9462891
				c0.8535156,0,1.5380859-0.2265625,2.0527344-0.6826172c0.5146484-0.4570312,0.7724609-1.0664062,0.7724609-1.8251953
				c0-0.5683594-0.2128906-1.1113281-0.6357422-1.6328125c-0.4228516-0.5205078-1.3066406-1.1904297-2.6513672-2.0136719
				c-1.0986328-0.6757812-1.8271484-1.2109375-2.1953125-1.6025391s-0.640625-0.8212891-0.8164062-1.2880859
				c-0.1757812-0.4677734-0.2617188-0.9824219-0.2617188-1.5429688c0-1.0800781,0.3544922-1.9570312,1.0615234-2.6279297
				c0.7080078-0.671875,1.6298828-1.0087891,2.7636719-1.0087891c0.6240234,0,1.3037109,0.1259766,2.0390625,0.3730469
				c0.34375,0.1113281,0.5839844,0.1669922,0.7207031,0.1669922c0.1113281,0,0.1865234-0.0244141,0.2265625-0.0722656
				C111.5927734,7.8300781,111.6386719,7.7226562,111.6855469,7.5556641z"/>
			<path fill="#B59758" d="M122.5419922,8.4443359H120.40625v10.8125c0,0.8525391,0.1025391,1.4228516,0.3105469,1.7197266
				c0.2089844,0.2958984,0.6113281,0.4443359,1.2128906,0.4443359v0.4082031h-4.9785156v-0.4082031
				c0.6201172,0,1.0390625-0.1708984,1.2626953-0.5117188c0.2226562-0.3388672,0.3320312-0.9130859,0.3320312-1.7207031V8.4443359
				h-2.0380859c-0.9765625,0-1.6865234,0.1542969-2.1279297,0.4677734
				c-0.4443359,0.3115234-0.6953125,0.8271484-0.7509766,1.5449219h-0.4199219V7.2314453h0.4199219
				c0.3759766,0.3535156,1.0800781,0.5273438,2.1113281,0.5273438h7.3769531c1.0634766,0,1.8056641-0.1738281,2.2294922-0.5273438
				h0.4443359v3.2255859h-0.2763672c-0.1757812-0.7744141-0.4892578-1.3046875-0.9423828-1.5878906
				C124.1220703,8.5849609,123.4433594,8.4443359,122.5419922,8.4443359z"/>
		</g>
	</g>
	<g>
		<polyline fill="#BBB1AB" points="23.5976562,27.9423828 5.7119141,27.9423828 10.5888672,33.1728516 5.1699219,38.4052734 
			22.5136719,38.4052734 		"/>
		<polyline fill="#BBB1AB" points="115.8242188,38.4052734 133.7099609,38.4052734 128.8320312,33.1748047 134.2519531,27.9414062 
			116.9082031,27.9414062 		"/>
		<rect x="13.8349609" y="25.4975586" fill="#DCCFC5" width="111.6494141" height="15.9995117"/>
	</g>
	<g>
		<path fill="#FFFFFF" d="M28.2319336,37.1318359H25.003418v-0.09375h0.1171875c0.21875,0,0.4072266-0.0791016,0.5654297-0.2373047
			s0.2373047-0.3955078,0.2373047-0.7119141v-6.515625c0-0.3085938-0.0732422-0.5478516-0.2197266-0.7177734
			s-0.3447266-0.2548828-0.5947266-0.2548828H25.003418v-0.0996094h2.8183594c0.3710938,0,0.7128906,0.0537109,1.0253906,0.1611328
			s0.5771484,0.2558594,0.7939453,0.4453125s0.3837891,0.4042969,0.5009766,0.6445312s0.1757812,0.5009766,0.1757812,0.7822266
			c0,0.5195312-0.1679688,0.9414062-0.5039062,1.265625s-0.7871094,0.5625-1.3535156,0.7148438v0.0234375
			c0.2578125,0.0273438,0.5058594,0.0683594,0.7441406,0.1230469s0.453125,0.1308594,0.6445312,0.2285156
			s0.3710938,0.2246094,0.5390625,0.3808594c0.1523438,0.140625,0.28125,0.2949219,0.3867188,0.4628906
			s0.1855469,0.3505859,0.2402344,0.5478516s0.0820312,0.3994141,0.0820312,0.6064453
			c0,0.4492188-0.1162109,0.8359375-0.3486328,1.1601562s-0.4951172,0.5703125-0.7880859,0.7382812
			C29.5424805,37.0166016,28.9663086,37.1318359,28.2319336,37.1318359z M26.8139648,32.4619141h0.5625
			c0.4609375,0,0.7890625-0.046875,0.984375-0.140625c0.125-0.0625,0.2548828-0.1484375,0.3896484-0.2578125
			s0.2636719-0.28125,0.3867188-0.515625s0.1845703-0.5175781,0.1845703-0.8496094
			c0-0.2578125-0.0410156-0.5029297-0.1230469-0.7353516s-0.2011719-0.4384766-0.3574219-0.6181641
			s-0.3417969-0.3203125-0.5566406-0.421875s-0.4492188-0.1523438-0.703125-0.1523438
			c-0.2226562,0-0.4785156,0.0429688-0.7675781,0.1289062V32.4619141z M27.6987305,32.7255859h-0.8847656v3.1113281
			c0,0.2070312,0.0205078,0.3798828,0.0615234,0.5185547s0.1533203,0.2587891,0.3369141,0.3603516
			s0.4667969,0.1523438,0.8496094,0.1523438c0.7929688,0,1.3574219-0.2636719,1.6933594-0.7910156
			c0.2304688-0.3632812,0.3457031-0.7714844,0.3457031-1.2246094c0-0.328125-0.0576172-0.625-0.1728516-0.890625
			s-0.2734375-0.4873047-0.4746094-0.6650391s-0.4541016-0.3173828-0.7587891-0.4189453
			S28.0581055,32.7255859,27.6987305,32.7255859z"/>
		<path fill="#FFFFFF" d="M44.8041992,32.8251953c0,0.8085938-0.2001953,1.5605469-0.6005859,2.2558594
			s-0.9462891,1.2490234-1.6376953,1.6611328s-1.4570312,0.6181641-2.296875,0.6181641
			c-0.84375,0-1.6171875-0.2060547-2.3203125-0.6181641s-1.2568359-0.9677734-1.6611328-1.6669922
			s-0.6064453-1.4609375-0.6064453-2.2851562c0-0.6328125,0.1201172-1.2275391,0.3603516-1.7841797
			s0.5761719-1.0419922,1.0078125-1.4560547s0.9238281-0.734375,1.4765625-0.9609375s1.1298828-0.3398438,1.7314453-0.3398438
			c0.5898438,0,1.15625,0.1083984,1.6992188,0.3251953s1.0302734,0.5302734,1.4619141,0.9404297
			s0.7705078,0.8964844,1.0166016,1.4589844S44.8041992,32.1533203,44.8041992,32.8251953z M43.7729492,32.8486328
			c0-1.1484375-0.203125-2.046875-0.609375-2.6953125s-0.875-1.0830078-1.40625-1.3037109s-1.03125-0.3310547-1.5-0.3310547
			c-0.3632812,0-0.7402344,0.0595703-1.1308594,0.1787109s-0.7705078,0.3369141-1.1396484,0.6533203
			s-0.6728516,0.7617188-0.9111328,1.3359375s-0.3574219,1.2832031-0.3574219,2.1269531
			c0,0.7421875,0.0986328,1.3896484,0.2958984,1.9423828s0.46875,1.0039062,0.8144531,1.3535156
			s0.7265625,0.6015625,1.1425781,0.7558594s0.8486328,0.2314453,1.2978516,0.2314453
			c0.4023438,0,0.8095703-0.0712891,1.2216797-0.2138672s0.7890625-0.375,1.1308594-0.6972656s0.6191406-0.7597656,0.8320312-1.3125
			S43.7729492,33.6455078,43.7729492,32.8486328z"/>
		<path fill="#FFFFFF" d="M57.996582,37.1318359h-1.8105469v-1.4296875l-0.0292969-0.0234375
			c-0.25,0.5820312-0.6240234,1.0078125-1.1220703,1.2773438s-1.0185547,0.4042969-1.5615234,0.4042969
			c-0.6132812,0-1.1650391-0.1464844-1.6552734-0.4394531s-0.8505859-0.6542969-1.0810547-1.0839844
			c-0.1640625-0.3046875-0.2675781-0.6220703-0.3105469-0.9521484s-0.0644531-0.6728516-0.0644531-1.0283203v-4.2949219
			c0-0.2578125-0.0517578-0.4746094-0.1552734-0.6503906s-0.3505859-0.2792969-0.7412109-0.3105469v-0.0996094h2.7128906v0.0996094
			c-0.3984375,0.046875-0.6523438,0.1621094-0.7617188,0.3457031s-0.1640625,0.3886719-0.1640625,0.6152344v4.2246094
			c0,0.859375,0.0878906,1.4941406,0.2636719,1.9042969c0.1875,0.4375,0.46875,0.7792969,0.84375,1.0253906
			s0.8007812,0.3691406,1.2773438,0.3691406c0.1992188,0,0.4355469-0.0351562,0.7089844-0.1054688
			s0.5292969-0.1875,0.7675781-0.3515625c0.7148438-0.4882812,1.0722656-1.2714844,1.0722656-2.3496094v-4.7167969
			c0-0.2382812-0.0546875-0.4492188-0.1640625-0.6328125s-0.3671875-0.2929688-0.7734375-0.328125v-0.0996094h2.7597656v0.0996094
			c-0.3984375,0.0195312-0.6542969,0.1308594-0.7675781,0.3339844s-0.1699219,0.4082031-0.1699219,0.6152344v6.5390625
			c0,0.2265625,0.0380859,0.4052734,0.1142578,0.5361328s0.1816406,0.2236328,0.3164062,0.2783203
			s0.2998047,0.0996094,0.4951172,0.1347656V37.1318359z"/>
		<path fill="#FFFFFF" d="M69.8110352,30.1826172h-0.09375c-0.0429688-0.5625-0.2070312-0.9267578-0.4921875-1.0927734
			s-0.6367188-0.2490234-1.0546875-0.2490234h-1.7167969v7.2480469c0,0.6132812,0.3125,0.9296875,0.9375,0.9492188v0.09375
			h-2.7480469v-0.09375c0.2578125-0.0078125,0.4755859-0.0830078,0.6533203-0.2255859s0.2666016-0.3837891,0.2666016-0.7236328
			v-7.2480469h-1.7167969c-0.4179688,0-0.7685547,0.0830078-1.0517578,0.2490234s-0.4482422,0.5302734-0.4951172,1.0927734h-0.09375
			v-2.109375h0.09375c0.0625,0.0976562,0.1171875,0.1699219,0.1640625,0.2167969s0.1074219,0.0869141,0.1816406,0.1201172
			s0.1611328,0.0566406,0.2607422,0.0703125s0.2177734,0.0205078,0.3544922,0.0205078h5.5898438
			c0.3710938,0,0.6601562-0.1425781,0.8671875-0.4277344h0.09375V30.1826172z"/>
		<path fill="#FFFFFF" d="M76.7978516,28.5009766v0.0996094c-0.2578125,0-0.4765625,0.0722656-0.65625,0.2167969
			s-0.2695312,0.3847656-0.2695312,0.7207031v6.5507812c0,0.3320312,0.0957031,0.5732422,0.2871094,0.7236328
			s0.4042969,0.2255859,0.6386719,0.2255859v0.09375h-2.7363281v-0.09375c0.25,0,0.4658203-0.0732422,0.6474609-0.2197266
			s0.2724609-0.3896484,0.2724609-0.7294922v-6.5507812c0-0.359375-0.0908203-0.6054688-0.2724609-0.7382812
			s-0.3974609-0.1992188-0.6474609-0.1992188v-0.0996094H76.7978516z"/>
		<path fill="#FFFFFF" d="M90.9150391,37.2373047l0.1347656,0.0878906c-0.375,0.4296875-0.7421875,0.7792969-1.1015625,1.0488281
			s-0.7558594,0.4042969-1.1894531,0.4042969c-0.1367188,0-0.2734375-0.0117188-0.4101562-0.0351562
			s-0.3095703-0.0703125-0.5185547-0.140625s-0.4521484-0.171875-0.7294922-0.3046875
			c-0.4804688-0.2265625-1.140625-0.5546875-1.9804688-0.984375c-0.0078125-0.0078125-0.0546875-0.0332031-0.140625-0.0761719
			C84.6474609,37.1357422,84.40625,37.0566406,84.2558594,37s-0.3466797-0.1542969-0.5888672-0.2929688
			s-0.4853516-0.3212891-0.7294922-0.5478516s-0.4716797-0.4941406-0.6826172-0.8027344
			c-0.1640625-0.2382812-0.3066406-0.5009766-0.4277344-0.7880859s-0.2128906-0.5839844-0.2753906-0.890625
			s-0.09375-0.6025391-0.09375-0.8876953c0-0.8554688,0.2128906-1.6318359,0.6386719-2.3291016
			s0.9892578-1.2402344,1.6904297-1.6289062s1.4541016-0.5830078,2.2587891-0.5830078
			c0.6171875,0,1.2041016,0.1171875,1.7607422,0.3515625s1.0429688,0.5615234,1.4589844,0.9814453
			s0.7392578,0.90625,0.9697266,1.4589844s0.3457031,1.1396484,0.3457031,1.7607422
			c0,0.609375-0.1220703,1.2050781-0.3662109,1.7871094s-0.5986328,1.09375-1.0634766,1.5351562
			c-0.2109375,0.1992188-0.4042969,0.359375-0.5800781,0.4804688s-0.3466797,0.2207031-0.5126953,0.2988281
			s-0.3388672,0.1455078-0.5185547,0.2021484s-0.3535156,0.1044922-0.5214844,0.1435547v0.0292969
			c0.0234375,0,0.1074219,0.0390625,0.2519531,0.1171875c0.5195312,0.296875,0.8984375,0.4775391,1.1367188,0.5419922
			s0.4980469,0.0966797,0.7792969,0.0966797c0.3476562,0,0.6298828-0.0546875,0.8466797-0.1640625
			s0.4873047-0.3027344,0.8115234-0.5800781c0.0078125,0,0.0205078-0.0087891,0.0380859-0.0263672
			S90.9111328,37.2373047,90.9150391,37.2373047z M89.5498047,32.8603516c0-0.859375-0.1171875-1.5771484-0.3515625-2.1533203
			s-0.5322266-1.0224609-0.8935547-1.3388672s-0.7373047-0.5371094-1.1279297-0.6621094s-0.7714844-0.1875-1.1425781-0.1875
			c-0.3828125,0-0.7724609,0.0644531-1.1689453,0.1933594s-0.7773438,0.3554688-1.1425781,0.6796875
			s-0.6611328,0.7666016-0.8876953,1.3271484s-0.3398438,1.2431641-0.3398438,2.0478516
			c0,0.7851562,0.1035156,1.4619141,0.3105469,2.0302734s0.4902344,1.0263672,0.8496094,1.3740234
			c0.2265625,0.2148438,0.4726562,0.390625,0.7382812,0.5273438s0.5419922,0.2353516,0.8291016,0.2958984
			s0.5693359,0.0908203,0.8466797,0.0908203c0.4960938,0,0.9599609-0.0917969,1.3916016-0.2753906
			s0.7958984-0.4472656,1.0927734-0.7910156C89.2177734,35.2451172,89.5498047,34.1923828,89.5498047,32.8603516z"/>
		<path fill="#FFFFFF" d="M103.6142578,37.1318359h-1.8105469v-1.4296875l-0.0292969-0.0234375
			c-0.25,0.5820312-0.6240234,1.0078125-1.1220703,1.2773438s-1.0185547,0.4042969-1.5615234,0.4042969
			c-0.6132812,0-1.1650391-0.1464844-1.6552734-0.4394531s-0.8505859-0.6542969-1.0810547-1.0839844
			c-0.1640625-0.3046875-0.2675781-0.6220703-0.3105469-0.9521484s-0.0644531-0.6728516-0.0644531-1.0283203v-4.2949219
			c0-0.2578125-0.0517578-0.4746094-0.1552734-0.6503906s-0.3505859-0.2792969-0.7412109-0.3105469v-0.0996094h2.7128906v0.0996094
			c-0.3984375,0.046875-0.6523438,0.1621094-0.7617188,0.3457031s-0.1640625,0.3886719-0.1640625,0.6152344v4.2246094
			c0,0.859375,0.0878906,1.4941406,0.2636719,1.9042969c0.1875,0.4375,0.46875,0.7792969,0.84375,1.0253906
			s0.8007812,0.3691406,1.2773438,0.3691406c0.1992188,0,0.4355469-0.0351562,0.7089844-0.1054688
			s0.5292969-0.1875,0.7675781-0.3515625c0.7148438-0.4882812,1.0722656-1.2714844,1.0722656-2.3496094v-4.7167969
			c0-0.2382812-0.0546875-0.4492188-0.1640625-0.6328125s-0.3671875-0.2929688-0.7734375-0.328125v-0.0996094h2.7597656v0.0996094
			c-0.3984375,0.0195312-0.6542969,0.1308594-0.7675781,0.3339844s-0.1699219,0.4082031-0.1699219,0.6152344v6.5390625
			c0,0.2265625,0.0380859,0.4052734,0.1142578,0.5361328s0.1816406,0.2236328,0.3164062,0.2783203
			s0.2998047,0.0996094,0.4951172,0.1347656V37.1318359z"/>
		<path fill="#FFFFFF" d="M108.0527344,28.6005859v-0.0996094h5.1445312v1.359375h-0.0820312
			c0-0.7265625-0.484375-1.0898438-1.453125-1.0898438h-1.7988281v3.9199219h1.5820312
			c0.3125,0,0.5917969-0.0507812,0.8378906-0.1523438s0.3867188-0.3339844,0.421875-0.6972656h0.0878906v1.9570312h-0.0878906
			c-0.0351562-0.2226562-0.1015625-0.3935547-0.1992188-0.5126953s-0.1943359-0.1982422-0.2900391-0.2373047
			s-0.1806641-0.0585938-0.2548828-0.0585938c-0.140625-0.0234375-0.2871094-0.0351562-0.4394531-0.0351562h-1.6582031v3.0644531
			c0,0.2304688,0.0439453,0.4296875,0.1318359,0.5976562s0.2919922,0.2519531,0.6123047,0.2519531h1.2832031
			c0.3085938,0,0.5625-0.0449219,0.7617188-0.1347656s0.3564453-0.2148438,0.4716797-0.375s0.2119141-0.3535156,0.2900391-0.5800781
			h0.0820312l-0.2988281,1.3535156h-5.1445312v-0.09375h0.1171875c0.1835938,0,0.3632812-0.0742188,0.5390625-0.2226562
			s0.2636719-0.390625,0.2636719-0.7265625v-6.5039062c0-0.265625-0.0595703-0.4960938-0.1787109-0.6914062
			s-0.3271484-0.2929688-0.6240234-0.2929688H108.0527344z"/>
	</g>
	<g>
		<path fill="#B59758" stroke="#B59758" stroke-width="0.5" stroke-miterlimit="10" d="M19.934082,45.5058594v0.0556641
			c-0.0996094,0.0205078-0.1875,0.0576172-0.265625,0.1113281c-0.0771484,0.0546875-0.1533203,0.1445312-0.2285156,0.2695312
			s-0.1542969,0.3056641-0.2363281,0.5429688l-1.3710938,4.0400391h-0.0498047l-1.2480469-4.0400391h-0.0166016
			l-1.3583984,4.0400391h-0.0498047l-1.390625-4.4550781c-0.0517578-0.1572266-0.1123047-0.2714844-0.1826172-0.3427734
			c-0.0712891-0.0703125-0.1357422-0.1142578-0.1943359-0.1308594s-0.1318359-0.0283203-0.2177734-0.0351562v-0.0556641h1.5175781
			v0.0556641c-0.1328125,0.0087891-0.2333984,0.0488281-0.3007812,0.1201172
			c-0.0673828,0.0703125-0.1015625,0.1582031-0.1015625,0.2617188c0,0.0800781,0.0195312,0.1796875,0.0566406,0.2988281
			l1.0332031,3.3037109h0.0126953l1.109375-3.3037109l-0.046875-0.1494141
			c-0.0439453-0.1435547-0.1103516-0.265625-0.1992188-0.3662109c-0.0878906-0.1005859-0.2265625-0.15625-0.4150391-0.1650391
			v-0.0556641h1.5644531v0.0556641c-0.1777344,0.0029297-0.2919922,0.0478516-0.34375,0.1367188
			c-0.0527344,0.0878906-0.078125,0.1699219-0.078125,0.2451172c0,0.0957031,0.0166016,0.1953125,0.0498047,0.2988281
			l1.0195312,3.3037109h0.0126953l1.0390625-3.0605469c0.03125-0.0820312,0.0595703-0.1787109,0.0849609-0.2890625
			c0.0253906-0.1113281,0.0380859-0.2050781,0.0380859-0.2822266c0-0.1503906-0.0322266-0.2451172-0.0976562-0.2822266
			c-0.0654297-0.0380859-0.1708984-0.0615234-0.3173828-0.0703125v-0.0556641H19.934082z"/>
		<path fill="#B59758" stroke="#B59758" stroke-width="0.5" stroke-miterlimit="10" d="M25.1831055,47.9560547
			c0,0.4580078-0.1132812,0.8837891-0.3398438,1.2783203c-0.2275391,0.3935547-0.5361328,0.7080078-0.9287109,0.9414062
			c-0.3916016,0.2333984-0.8251953,0.3496094-1.3007812,0.3496094c-0.4785156,0-0.9169922-0.1162109-1.3154297-0.3496094
			s-0.7119141-0.5488281-0.9414062-0.9453125c-0.2285156-0.3955078-0.34375-0.8271484-0.34375-1.2949219
			c0-0.3583984,0.0683594-0.6953125,0.2050781-1.0107422c0.1357422-0.3154297,0.3261719-0.5908203,0.5703125-0.8251953
			c0.2451172-0.234375,0.5234375-0.4160156,0.8369141-0.5439453c0.3134766-0.1289062,0.640625-0.1933594,0.9814453-0.1933594
			c0.3339844,0,0.6552734,0.0615234,0.9628906,0.1845703s0.5839844,0.3007812,0.828125,0.5332031
			c0.2451172,0.2324219,0.4365234,0.5078125,0.5761719,0.8261719
			C25.1137695,47.2255859,25.1831055,47.5751953,25.1831055,47.9560547z M24.5991211,47.96875
			c0-0.6503906-0.1152344-1.1591797-0.3457031-1.5273438c-0.2304688-0.3671875-0.4960938-0.6132812-0.796875-0.7382812
			s-0.5839844-0.1875-0.8496094-0.1875c-0.2060547,0-0.4199219,0.0332031-0.640625,0.1005859
			c-0.2216797,0.0683594-0.4375,0.1914062-0.6464844,0.3710938c-0.2089844,0.1787109-0.3808594,0.4316406-0.515625,0.7568359
			c-0.1357422,0.3251953-0.203125,0.7265625-0.203125,1.2050781c0,0.4208984,0.0556641,0.7871094,0.1679688,1.1005859
			c0.1113281,0.3134766,0.265625,0.5693359,0.4609375,0.7666016c0.1962891,0.1982422,0.4121094,0.3417969,0.6484375,0.4287109
			c0.2353516,0.0878906,0.4804688,0.1308594,0.7353516,0.1308594c0.2275391,0,0.4580078-0.0400391,0.6923828-0.1210938
			c0.2333984-0.0800781,0.4462891-0.2119141,0.640625-0.3945312c0.1933594-0.1826172,0.3505859-0.4306641,0.4707031-0.7441406
			C24.5385742,48.8027344,24.5991211,48.4208984,24.5991211,47.96875z"/>
		<path fill="#B59758" stroke="#B59758" stroke-width="0.5" stroke-miterlimit="10" d="M30.9770508,45.5058594v0.0556641
			c-0.0927734,0.0117188-0.1591797,0.0205078-0.1992188,0.0283203c-0.0390625,0.0078125-0.0839844,0.0302734-0.1328125,0.0683594
			c-0.0751953,0.0576172-0.1220703,0.1113281-0.140625,0.1630859c-0.0185547,0.0507812-0.0302734,0.1386719-0.0351562,0.265625
			c-0.0068359,0.0195312-0.0068359,0.0390625,0,0.0595703l0.1699219,3.6318359
			c0.0039062,0.1533203,0.0410156,0.2851562,0.109375,0.3955078s0.2177734,0.1669922,0.4482422,0.1689453v0.0537109H29.612793
			v-0.0537109c0.2080078-0.0214844,0.3486328-0.0820312,0.421875-0.1806641s0.1035156-0.2519531,0.0927734-0.4599609
			l-0.1689453-3.7587891h-0.0136719l-1.7265625,4.453125l-1.6337891-4.2900391h-0.0126953l-0.1767578,3.4667969
			c-0.0087891,0.1904297,0.0029297,0.3378906,0.0351562,0.4423828c0.0322266,0.1054688,0.0839844,0.1806641,0.1542969,0.2265625
			c0.0712891,0.0449219,0.1757812,0.0791016,0.3154297,0.1005859v0.0537109H25.668457v-0.0537109
			c0.1572266-0.0019531,0.2763672-0.0390625,0.3583984-0.1123047s0.1357422-0.1650391,0.1611328-0.2744141
			s0.0449219-0.2587891,0.0576172-0.4492188l0.1962891-3.5859375c0-0.0136719-0.0136719-0.0371094-0.0400391-0.0722656
			c-0.0263672-0.0341797-0.0585938-0.0683594-0.0976562-0.1025391s-0.0761719-0.0615234-0.1113281-0.0810547
			c-0.0751953-0.046875-0.140625-0.0742188-0.1962891-0.0820312c-0.0546875-0.0068359-0.1328125-0.0146484-0.2324219-0.0214844
			v-0.0556641h1.1357422l1.5146484,4.0009766l1.5371094-4.0009766H30.9770508z"/>
		<path fill="#B59758" stroke="#B59758" stroke-width="0.5" stroke-miterlimit="10" d="M31.5922852,45.5615234v-0.0556641h2.9150391
			v0.7695312h-0.046875c0-0.4111328-0.2744141-0.6171875-0.8232422-0.6171875h-1.0195312v2.2216797h0.8964844
			c0.1777344,0,0.3359375-0.0292969,0.4755859-0.0869141c0.1386719-0.0576172,0.21875-0.1894531,0.2382812-0.3945312h0.0498047
			v1.1083984h-0.0498047c-0.0195312-0.1259766-0.0576172-0.2226562-0.1123047-0.2900391
			c-0.0556641-0.0673828-0.1103516-0.1123047-0.1650391-0.1347656c-0.0537109-0.0224609-0.1015625-0.0332031-0.1435547-0.0332031
			c-0.0800781-0.0136719-0.1630859-0.0195312-0.2490234-0.0195312h-0.9404297v1.7363281
			c0,0.1308594,0.0253906,0.2431641,0.0751953,0.3388672c0.0498047,0.0947266,0.1650391,0.1425781,0.3466797,0.1425781h0.7275391
			c0.1748047,0,0.3183594-0.0253906,0.4316406-0.0761719c0.1123047-0.0517578,0.2021484-0.1220703,0.2675781-0.2128906
			c0.0644531-0.0908203,0.1191406-0.2001953,0.1640625-0.3291016h0.0458984l-0.1689453,0.7675781h-2.9150391v-0.0537109h0.0664062
			c0.1035156,0,0.2060547-0.0419922,0.3056641-0.1259766s0.1494141-0.2207031,0.1494141-0.4111328v-3.6855469
			c0-0.1513672-0.0341797-0.28125-0.1015625-0.3925781c-0.0673828-0.1103516-0.1855469-0.1660156-0.3535156-0.1660156H31.5922852z"
			/>
		<path fill="#B59758" stroke="#B59758" stroke-width="0.5" stroke-miterlimit="10" d="M40.1293945,45.5058594v0.0556641
			c-0.1240234,0.015625-0.2226562,0.0400391-0.2939453,0.0712891c-0.0722656,0.0322266-0.1279297,0.0957031-0.1679688,0.1894531
			c-0.0400391,0.0947266-0.0595703,0.2294922-0.0595703,0.4072266v4.2900391H39.574707l-3.7558594-4.1904297v3.0078125
			c0,0.25,0.0107422,0.4365234,0.0302734,0.5576172c0.0195312,0.1220703,0.0488281,0.2099609,0.0859375,0.2626953
			c0.0820312,0.1152344,0.2246094,0.1767578,0.4287109,0.1855469v0.0537109h-1.2255859v-0.0537109
			c0.1376953-0.0058594,0.2441406-0.0351562,0.3203125-0.0878906c0.0771484-0.0517578,0.1308594-0.1464844,0.1630859-0.2851562
			s0.0478516-0.3466797,0.0478516-0.6259766v-3.1904297l-0.1621094-0.1826172
			c-0.1445312-0.1640625-0.2587891-0.2675781-0.3457031-0.3105469c-0.0859375-0.0439453-0.1933594-0.0761719-0.3222656-0.0986328
			v-0.0556641h0.9199219l3.6992188,4.1435547v-3.1582031c0-0.2363281-0.0097656-0.4130859-0.0283203-0.53125
			c-0.0185547-0.1171875-0.0683594-0.2109375-0.1494141-0.2822266c-0.0810547-0.0703125-0.2080078-0.109375-0.3798828-0.1162109
			v-0.0556641H40.1293945z"/>
		<path fill="#B59758" stroke="#B59758" stroke-width="0.5" stroke-miterlimit="10" d="M45.0893555,45.4453125l1.4638672,4.1904297
			c0.078125,0.2167969,0.1513672,0.3740234,0.2197266,0.4716797s0.1337891,0.1591797,0.1972656,0.1845703
			s0.1435547,0.0419922,0.2412109,0.0507812v0.0537109h-1.5976562v-0.0537109c0.1640625,0,0.2900391-0.0146484,0.3789062-0.0458984
			c0.0878906-0.03125,0.1328125-0.1152344,0.1328125-0.2529297c0-0.0751953-0.0214844-0.1757812-0.0634766-0.3017578
			c-0.0087891-0.0175781-0.0126953-0.03125-0.0126953-0.0400391l-0.4355469-1.2978516h-1.6933594l-0.3886719,1.2021484
			c-0.0527344,0.1630859-0.0791016,0.2949219-0.0791016,0.3945312c0,0.1376953,0.0341797,0.2285156,0.1025391,0.2744141
			c0.0683594,0.0449219,0.1660156,0.0673828,0.2919922,0.0673828v0.0537109h-1.1484375v-0.0537109
			c0.1640625-0.0146484,0.2949219-0.078125,0.3935547-0.1875s0.1845703-0.2753906,0.2568359-0.4990234l1.3818359-4.2109375
			H45.0893555z M43.9770508,48.2285156h1.5576172l-0.796875-2.3212891h-0.0136719L43.9770508,48.2285156z"/>
		<path fill="#B59758" stroke="#B59758" stroke-width="0.5" stroke-miterlimit="10" d="M51.2026367,46.4580078h-0.0527344
			c-0.0244141-0.3183594-0.1171875-0.5244141-0.2792969-0.6191406c-0.1611328-0.09375-0.3603516-0.140625-0.5976562-0.140625
			H49.300293v4.1074219c0,0.3466797,0.1777344,0.5263672,0.53125,0.5371094v0.0537109h-1.5566406v-0.0537109
			c0.1455078-0.0039062,0.2695312-0.046875,0.3701172-0.1279297c0.1005859-0.0800781,0.1503906-0.2167969,0.1503906-0.4091797
			v-4.1074219h-0.9726562c-0.2363281,0-0.4355469,0.046875-0.5957031,0.140625
			c-0.1601562,0.0947266-0.2539062,0.3007812-0.2802734,0.6191406h-0.0537109v-1.1953125h0.0537109
			c0.0351562,0.0556641,0.0664062,0.0966797,0.0927734,0.1230469s0.0605469,0.0498047,0.1025391,0.0683594
			s0.0917969,0.0322266,0.1474609,0.0400391c0.0566406,0.0078125,0.1240234,0.0117188,0.2011719,0.0117188h3.1679688
			c0.2099609,0,0.3740234-0.0810547,0.4912109-0.2431641h0.0527344V46.4580078z"/>
		<path fill="#B59758" stroke="#B59758" stroke-width="0.5" stroke-miterlimit="10" d="M53.8852539,45.5751953h-0.0664062
			v-0.0693359h1.6933594c0.2724609,0,0.5029297,0.0419922,0.6923828,0.1259766s0.3359375,0.1904297,0.4414062,0.3203125
			c0.1054688,0.1289062,0.1806641,0.265625,0.2255859,0.4101562c0.0458984,0.1435547,0.0683594,0.2851562,0.0683594,0.4248047
			c0,0.1767578-0.0371094,0.3466797-0.1113281,0.5097656c-0.0742188,0.1621094-0.1884766,0.3027344-0.3417969,0.4199219
			c-0.1542969,0.1171875-0.3457031,0.1972656-0.5761719,0.2392578V47.96875c0.2919922,0.1416016,0.5625,0.4228516,0.8105469,0.84375
			l0.4414062,0.7470703c0.1992188,0.3339844,0.359375,0.5458984,0.4794922,0.6337891
			c0.1210938,0.0888672,0.2392578,0.1386719,0.3574219,0.1494141v0.0537109h-0.890625
			c-0.0371094-0.0488281-0.0722656-0.0957031-0.1054688-0.1416016c-0.0332031-0.0449219-0.0693359-0.0927734-0.1064453-0.1445312
			c-0.0224609-0.0332031-0.0546875-0.0830078-0.0976562-0.1503906c-0.0439453-0.0673828-0.0693359-0.1064453-0.078125-0.1152344
			l-0.5849609-0.9658203c-0.1171875-0.1972656-0.2373047-0.3574219-0.3603516-0.4794922
			c-0.1230469-0.1230469-0.2373047-0.2109375-0.34375-0.2646484c-0.1054688-0.0527344-0.2011719-0.0859375-0.2871094-0.0996094
			c-0.0849609-0.0126953-0.1855469-0.0195312-0.2998047-0.0195312v1.7900391c0,0.3466797,0.1767578,0.5263672,0.53125,0.5371094
			v0.0537109h-1.5576172v-0.0537109c0.0976562-0.0039062,0.1835938-0.0224609,0.2587891-0.0546875
			s0.1376953-0.0869141,0.1875-0.1660156c0.0498047-0.078125,0.0751953-0.1835938,0.0751953-0.3164062v-3.6992188
			c0-0.1943359-0.0478516-0.3320312-0.1425781-0.4121094C54.1020508,45.6152344,53.9985352,45.5751953,53.8852539,45.5751953z
			 M54.8452148,47.8857422h0.2783203c0.2919922,0,0.5322266-0.0419922,0.71875-0.1259766
			c0.1875-0.0839844,0.3232422-0.2041016,0.4072266-0.3603516s0.1259766-0.3466797,0.1259766-0.5722656
			c0-0.1884766-0.0380859-0.3730469-0.1132812-0.5527344c-0.0751953-0.1806641-0.203125-0.3320312-0.3828125-0.4550781
			c-0.1806641-0.1230469-0.4238281-0.1845703-0.7294922-0.1845703c-0.1240234,0-0.2255859,0.0097656-0.3046875,0.0302734V47.8857422
			z"/>
		<path fill="#B59758" stroke="#B59758" stroke-width="0.5" stroke-miterlimit="10" d="M59.8481445,45.5058594v0.0556641
			c-0.1455078,0-0.2695312,0.0410156-0.3720703,0.1230469c-0.1015625,0.0820312-0.1523438,0.2177734-0.1523438,0.4082031v3.7128906
			c0,0.1875,0.0546875,0.3242188,0.1630859,0.4091797c0.1083984,0.0859375,0.2285156,0.1279297,0.3613281,0.1279297v0.0537109
			h-1.5507812v-0.0537109c0.1416016,0,0.2646484-0.0410156,0.3671875-0.1240234
			c0.1035156-0.0830078,0.1542969-0.2207031,0.1542969-0.4130859v-3.7128906c0-0.203125-0.0507812-0.3427734-0.1542969-0.4179688
			c-0.1025391-0.0751953-0.2255859-0.1132812-0.3671875-0.1132812v-0.0556641H59.8481445z"/>
		<path fill="#B59758" stroke="#B59758" stroke-width="0.5" stroke-miterlimit="10" d="M62.855957,46.4453125h-0.0527344
			c-0.03125-0.2373047-0.1347656-0.4443359-0.3105469-0.6230469c-0.1757812-0.1777344-0.4082031-0.2666016-0.6953125-0.2666016
			c-0.1884766,0-0.3554688,0.0439453-0.5019531,0.1328125c-0.1455078,0.0878906-0.2587891,0.2089844-0.3378906,0.3613281
			c-0.0800781,0.1533203-0.1201172,0.328125-0.1201172,0.5244141c0,0.1533203,0.0244141,0.2890625,0.0712891,0.4072266
			c0.0478516,0.1181641,0.1181641,0.2226562,0.2109375,0.3134766s0.203125,0.1757812,0.3291016,0.2539062
			c0.1259766,0.0791016,0.296875,0.1777344,0.5107422,0.2978516c0.359375,0.1962891,0.6376953,0.3925781,0.8369141,0.5888672
			s0.2988281,0.4648438,0.2988281,0.8056641c0,0.2080078-0.0537109,0.4082031-0.1611328,0.6025391
			c-0.1074219,0.1933594-0.2695312,0.3525391-0.4863281,0.4765625c-0.2167969,0.1230469-0.4853516,0.1855469-0.8066406,0.1855469
			c-0.2011719,0-0.3798828-0.0214844-0.5341797-0.0644531c-0.1552734-0.0439453-0.3125-0.1035156-0.4716797-0.1816406
			c-0.0664062-0.0214844-0.1123047-0.0332031-0.1367188-0.0332031c-0.0458984,0-0.0761719,0.0166016-0.0908203,0.0498047
			s-0.0341797,0.1054688-0.0585938,0.2158203H60.293457v-1.2246094h0.0556641
			c0.0800781,0.3583984,0.2353516,0.6298828,0.4648438,0.8134766c0.2304688,0.1835938,0.5107422,0.2753906,0.8408203,0.2753906
			c0.2470703,0,0.4462891-0.046875,0.5957031-0.1396484s0.2529297-0.2060547,0.3105469-0.3388672
			s0.0859375-0.265625,0.0859375-0.3984375c0-0.2744141-0.0830078-0.4980469-0.2509766-0.671875
			c-0.1669922-0.1738281-0.4208984-0.3515625-0.7617188-0.5332031c-0.234375-0.1279297-0.4082031-0.2275391-0.5214844-0.2988281
			c-0.1123047-0.0703125-0.2265625-0.1621094-0.34375-0.2753906c-0.1152344-0.1132812-0.2080078-0.2460938-0.2763672-0.4003906
			c-0.0693359-0.1533203-0.1035156-0.3300781-0.1035156-0.5292969c0-0.2304688,0.0615234-0.4501953,0.1826172-0.6611328
			c0.1220703-0.2099609,0.2949219-0.3789062,0.5185547-0.5058594s0.4765625-0.1914062,0.7597656-0.1914062
			c0.2148438,0,0.4355469,0.0371094,0.6611328,0.1103516c0.0351562,0.0175781,0.0830078,0.0263672,0.1425781,0.0263672
			c0.0732422,0,0.1230469-0.0498047,0.1494141-0.1494141h0.0527344V46.4453125z"/>
		<path fill="#B59758" stroke="#B59758" stroke-width="0.5" stroke-miterlimit="10" d="M67.5708008,45.5058594v0.0556641
			c-0.1376953,0.0087891-0.2587891,0.0253906-0.3632812,0.0498047c-0.1054688,0.0244141-0.2109375,0.0859375-0.3173828,0.1826172
			c-0.0771484,0.0732422-0.1298828,0.1220703-0.1572266,0.1464844c-0.0283203,0.0244141-0.0585938,0.0517578-0.0917969,0.0830078
			l-1.6669922,1.6464844l1.9921875,2.2519531c0.1552734,0.171875,0.2871094,0.2802734,0.3974609,0.3251953
			c0.109375,0.0439453,0.2490234,0.0761719,0.4199219,0.0957031v0.0537109h-1.0566406l-2.1875-2.4736328v1.8828125
			c0,0.3466797,0.1748047,0.5263672,0.5244141,0.5371094v0.0537109h-1.5507812v-0.0537109
			c0.0976562-0.0039062,0.1835938-0.0224609,0.2587891-0.0546875s0.1386719-0.0869141,0.1875-0.1660156
			c0.0507812-0.078125,0.0751953-0.1835938,0.0751953-0.3164062v-3.7128906c0-0.2050781-0.0517578-0.3447266-0.1542969-0.4160156
			c-0.1025391-0.0722656-0.2255859-0.1103516-0.3671875-0.1152344v-0.0556641h1.5507812v0.0556641
			c-0.3496094,0.0117188-0.5244141,0.1884766-0.5244141,0.53125v1.8066406l1.8759766-1.8759766
			c0,0.0048828,0.0039062-0.0019531,0.0126953-0.0195312c0.1044922-0.0957031,0.15625-0.1777344,0.15625-0.2460938
			c0-0.0771484-0.0302734-0.1259766-0.0908203-0.1464844c-0.0615234-0.0195312-0.1523438-0.0361328-0.2744141-0.0498047v-0.0556641
			H67.5708008z"/>
		<path fill="#B59758" stroke="#B59758" stroke-width="0.5" stroke-miterlimit="10" d="M71.8925781,45.5058594v0.0556641
			c-0.1455078,0-0.2695312,0.0410156-0.3720703,0.1230469c-0.1015625,0.0820312-0.1523438,0.2177734-0.1523438,0.4082031v3.7128906
			c0,0.1875,0.0546875,0.3242188,0.1630859,0.4091797c0.1083984,0.0859375,0.2285156,0.1279297,0.3613281,0.1279297v0.0537109
			h-1.550293v-0.0537109c0.1416016,0,0.2646484-0.0410156,0.3671875-0.1240234
			c0.1035156-0.0830078,0.1542969-0.2207031,0.1542969-0.4130859v-3.7128906c0-0.203125-0.0507812-0.3427734-0.1542969-0.4179688
			c-0.1025391-0.0751953-0.2255859-0.1132812-0.3671875-0.1132812v-0.0556641H71.8925781z"/>
		<path fill="#B59758" stroke="#B59758" stroke-width="0.5" stroke-miterlimit="10" d="M77.4511719,45.5058594v0.0556641
			c-0.1240234,0.015625-0.2226562,0.0400391-0.2939453,0.0712891c-0.0722656,0.0322266-0.1279297,0.0957031-0.1679688,0.1894531
			c-0.0400391,0.0947266-0.0595703,0.2294922-0.0595703,0.4072266v4.2900391h-0.0332031l-3.7558594-4.1904297v3.0078125
			c0,0.25,0.0107422,0.4365234,0.0302734,0.5576172c0.0195312,0.1220703,0.0488281,0.2099609,0.0859375,0.2626953
			c0.0820312,0.1152344,0.2246094,0.1767578,0.4287109,0.1855469v0.0537109h-1.2255859v-0.0537109
			c0.1376953-0.0058594,0.2441406-0.0351562,0.3203125-0.0878906c0.0771484-0.0517578,0.1308594-0.1464844,0.1630859-0.2851562
			s0.0478516-0.3466797,0.0478516-0.6259766v-3.1904297l-0.1621094-0.1826172
			c-0.1445312-0.1640625-0.2587891-0.2675781-0.3457031-0.3105469c-0.0859375-0.0439453-0.1933594-0.0761719-0.3222656-0.0986328
			v-0.0556641h0.9199219l3.6992188,4.1435547v-3.1582031c0-0.2363281-0.0097656-0.4130859-0.0283203-0.53125
			c-0.0185547-0.1171875-0.0683594-0.2109375-0.1494141-0.2822266c-0.0810547-0.0703125-0.2080078-0.109375-0.3798828-0.1162109
			v-0.0556641H77.4511719z"/>
		<path fill="#B59758" stroke="#B59758" stroke-width="0.5" stroke-miterlimit="10" d="M82.0888672,46.4580078h-0.0527344
			c-0.0244141-0.3183594-0.1171875-0.5244141-0.2792969-0.6191406c-0.1611328-0.09375-0.3603516-0.140625-0.5976562-0.140625
			h-0.9726562v4.1074219c0,0.3466797,0.1777344,0.5263672,0.53125,0.5371094v0.0537109h-1.5566406v-0.0537109
			c0.1455078-0.0039062,0.2695312-0.046875,0.3701172-0.1279297c0.1005859-0.0800781,0.1503906-0.2167969,0.1503906-0.4091797
			v-4.1074219h-0.9726562c-0.2363281,0-0.4355469,0.046875-0.5957031,0.140625
			c-0.1601562,0.0947266-0.2539062,0.3007812-0.2802734,0.6191406h-0.0537109v-1.1953125h0.0537109
			c0.0351562,0.0556641,0.0664062,0.0966797,0.0927734,0.1230469s0.0605469,0.0498047,0.1025391,0.0683594
			s0.0917969,0.0322266,0.1474609,0.0400391c0.0566406,0.0078125,0.1240234,0.0117188,0.2011719,0.0117188h3.1679688
			c0.2099609,0,0.3740234-0.0810547,0.4912109-0.2431641h0.0527344V46.4580078z"/>
		<path fill="#B59758" stroke="#B59758" stroke-width="0.5" stroke-miterlimit="10" d="M82.4443359,45.5615234v-0.0556641h2.9150391
			v0.7695312H85.3125c0-0.4111328-0.2744141-0.6171875-0.8232422-0.6171875h-1.0195312v2.2216797h0.8964844
			c0.1777344,0,0.3359375-0.0292969,0.4755859-0.0869141c0.1386719-0.0576172,0.21875-0.1894531,0.2382812-0.3945312h0.0498047
			v1.1083984h-0.0498047c-0.0195312-0.1259766-0.0576172-0.2226562-0.1123047-0.2900391
			c-0.0556641-0.0673828-0.1103516-0.1123047-0.1650391-0.1347656c-0.0537109-0.0224609-0.1015625-0.0332031-0.1435547-0.0332031
			c-0.0800781-0.0136719-0.1630859-0.0195312-0.2490234-0.0195312h-0.9404297v1.7363281
			c0,0.1308594,0.0253906,0.2431641,0.0751953,0.3388672c0.0498047,0.0947266,0.1650391,0.1425781,0.3466797,0.1425781h0.7275391
			c0.1748047,0,0.3183594-0.0253906,0.4316406-0.0761719c0.1123047-0.0517578,0.2021484-0.1220703,0.2675781-0.2128906
			c0.0644531-0.0908203,0.1191406-0.2001953,0.1640625-0.3291016h0.0458984l-0.1689453,0.7675781h-2.9150391v-0.0537109h0.0664062
			c0.1035156,0,0.2060547-0.0419922,0.3056641-0.1259766s0.1494141-0.2207031,0.1494141-0.4111328v-3.6855469
			c0-0.1513672-0.0341797-0.28125-0.1015625-0.3925781c-0.0673828-0.1103516-0.1855469-0.1660156-0.3535156-0.1660156H82.4443359z"
			/>
		<path fill="#B59758" stroke="#B59758" stroke-width="0.5" stroke-miterlimit="10" d="M85.9707031,45.5751953h-0.0664062
			v-0.0693359h1.6933594c0.2724609,0,0.5029297,0.0419922,0.6923828,0.1259766s0.3359375,0.1904297,0.4414062,0.3203125
			c0.1054688,0.1289062,0.1806641,0.265625,0.2255859,0.4101562c0.0458984,0.1435547,0.0683594,0.2851562,0.0683594,0.4248047
			c0,0.1767578-0.0371094,0.3466797-0.1113281,0.5097656c-0.0742188,0.1621094-0.1884766,0.3027344-0.3417969,0.4199219
			c-0.1542969,0.1171875-0.3457031,0.1972656-0.5761719,0.2392578V47.96875c0.2919922,0.1416016,0.5625,0.4228516,0.8105469,0.84375
			l0.4414062,0.7470703c0.1992188,0.3339844,0.359375,0.5458984,0.4794922,0.6337891
			c0.1210938,0.0888672,0.2392578,0.1386719,0.3574219,0.1494141v0.0537109h-0.890625
			c-0.0371094-0.0488281-0.0722656-0.0957031-0.1054688-0.1416016c-0.0332031-0.0449219-0.0693359-0.0927734-0.1064453-0.1445312
			c-0.0224609-0.0332031-0.0546875-0.0830078-0.0976562-0.1503906c-0.0439453-0.0673828-0.0693359-0.1064453-0.078125-0.1152344
			l-0.5849609-0.9658203c-0.1171875-0.1972656-0.2373047-0.3574219-0.3603516-0.4794922
			c-0.1230469-0.1230469-0.2373047-0.2109375-0.34375-0.2646484c-0.1054688-0.0527344-0.2011719-0.0859375-0.2871094-0.0996094
			c-0.0849609-0.0126953-0.1855469-0.0195312-0.2998047-0.0195312v1.7900391c0,0.3466797,0.1767578,0.5263672,0.53125,0.5371094
			v0.0537109h-1.5576172v-0.0537109c0.0976562-0.0039062,0.1835938-0.0224609,0.2587891-0.0546875
			s0.1376953-0.0869141,0.1875-0.1660156c0.0498047-0.078125,0.0751953-0.1835938,0.0751953-0.3164062v-3.6992188
			c0-0.1943359-0.0478516-0.3320312-0.1425781-0.4121094C86.1875,45.6152344,86.0839844,45.5751953,85.9707031,45.5751953z
			 M86.9306641,47.8857422h0.2783203c0.2919922,0,0.5322266-0.0419922,0.71875-0.1259766
			c0.1875-0.0839844,0.3232422-0.2041016,0.4072266-0.3603516s0.1259766-0.3466797,0.1259766-0.5722656
			c0-0.1884766-0.0380859-0.3730469-0.1132812-0.5527344c-0.0751953-0.1806641-0.203125-0.3320312-0.3828125-0.4550781
			c-0.1806641-0.1230469-0.4238281-0.1845703-0.7294922-0.1845703c-0.1240234,0-0.2255859,0.0097656-0.3046875,0.0302734V47.8857422
			z"/>
		<path fill="#B59758" stroke="#B59758" stroke-width="0.5" stroke-miterlimit="10" d="M95.4404297,45.5058594v0.0556641
			c-0.1240234,0.015625-0.2226562,0.0400391-0.2939453,0.0712891c-0.0722656,0.0322266-0.1279297,0.0957031-0.1679688,0.1894531
			c-0.0400391,0.0947266-0.0595703,0.2294922-0.0595703,0.4072266v4.2900391h-0.0332031l-3.7558594-4.1904297v3.0078125
			c0,0.25,0.0107422,0.4365234,0.0302734,0.5576172c0.0195312,0.1220703,0.0488281,0.2099609,0.0859375,0.2626953
			c0.0820312,0.1152344,0.2246094,0.1767578,0.4287109,0.1855469v0.0537109h-1.2255859v-0.0537109
			c0.1376953-0.0058594,0.2441406-0.0351562,0.3203125-0.0878906c0.0771484-0.0517578,0.1308594-0.1464844,0.1630859-0.2851562
			s0.0478516-0.3466797,0.0478516-0.6259766v-3.1904297l-0.1621094-0.1826172
			c-0.1445312-0.1640625-0.2587891-0.2675781-0.3457031-0.3105469c-0.0859375-0.0439453-0.1933594-0.0761719-0.3222656-0.0986328
			v-0.0556641h0.9199219l3.6992188,4.1435547v-3.1582031c0-0.2363281-0.0097656-0.4130859-0.0283203-0.53125
			c-0.0185547-0.1171875-0.0683594-0.2109375-0.1494141-0.2822266c-0.0810547-0.0703125-0.2080078-0.109375-0.3798828-0.1162109
			v-0.0556641H95.4404297z"/>
		<path fill="#B59758" stroke="#B59758" stroke-width="0.5" stroke-miterlimit="10" d="M97.7939453,45.4453125l1.4638672,4.1904297
			c0.078125,0.2167969,0.1513672,0.3740234,0.2197266,0.4716797s0.1337891,0.1591797,0.1972656,0.1845703
			s0.1435547,0.0419922,0.2412109,0.0507812v0.0537109h-1.5976562v-0.0537109c0.1640625,0,0.2900391-0.0146484,0.3789062-0.0458984
			c0.0878906-0.03125,0.1328125-0.1152344,0.1328125-0.2529297c0-0.0751953-0.0214844-0.1757812-0.0634766-0.3017578
			c-0.0087891-0.0175781-0.0126953-0.03125-0.0126953-0.0400391l-0.4355469-1.2978516H96.625l-0.3886719,1.2021484
			c-0.0527344,0.1630859-0.0791016,0.2949219-0.0791016,0.3945312c0,0.1376953,0.0341797,0.2285156,0.1025391,0.2744141
			c0.0683594,0.0449219,0.1660156,0.0673828,0.2919922,0.0673828v0.0537109h-1.1484375v-0.0537109
			c0.1640625-0.0146484,0.2949219-0.078125,0.3935547-0.1875s0.1845703-0.2753906,0.2568359-0.4990234l1.3818359-4.2109375
			H97.7939453z M96.6816406,48.2285156h1.5576172l-0.796875-2.3212891h-0.0136719L96.6816406,48.2285156z"/>
		<path fill="#B59758" stroke="#B59758" stroke-width="0.5" stroke-miterlimit="10" d="M103.90625,46.4580078h-0.0527344
			c-0.0244141-0.3183594-0.1171875-0.5244141-0.2792969-0.6191406c-0.1611328-0.09375-0.3603516-0.140625-0.5976562-0.140625
			h-0.9726562v4.1074219c0,0.3466797,0.1777344,0.5263672,0.53125,0.5371094v0.0537109h-1.5566406v-0.0537109
			c0.1455078-0.0039062,0.2695312-0.046875,0.3701172-0.1279297c0.1005859-0.0800781,0.1503906-0.2167969,0.1503906-0.4091797
			v-4.1074219h-0.9726562c-0.2363281,0-0.4355469,0.046875-0.5957031,0.140625
			c-0.1601562,0.0947266-0.2539062,0.3007812-0.2802734,0.6191406h-0.0537109v-1.1953125h0.0537109
			c0.0351562,0.0556641,0.0664062,0.0966797,0.0927734,0.1230469s0.0605469,0.0498047,0.1025391,0.0683594
			s0.0917969,0.0322266,0.1474609,0.0400391c0.0566406,0.0078125,0.1240234,0.0117188,0.2011719,0.0117188h3.1679688
			c0.2099609,0,0.3740234-0.0810547,0.4912109-0.2431641h0.0527344V46.4580078z"/>
		<path fill="#B59758" stroke="#B59758" stroke-width="0.5" stroke-miterlimit="10" d="M105.8251953,45.5058594v0.0556641
			c-0.1455078,0-0.2695312,0.0410156-0.3720703,0.1230469c-0.1015625,0.0820312-0.1523438,0.2177734-0.1523438,0.4082031v3.7128906
			c0,0.1875,0.0546875,0.3242188,0.1630859,0.4091797c0.1083984,0.0859375,0.2285156,0.1279297,0.3613281,0.1279297v0.0537109
			h-1.5507812v-0.0537109c0.1416016,0,0.2646484-0.0410156,0.3671875-0.1240234
			c0.1035156-0.0830078,0.1542969-0.2207031,0.1542969-0.4130859v-3.7128906c0-0.203125-0.0507812-0.3427734-0.1542969-0.4179688
			c-0.1025391-0.0751953-0.2255859-0.1132812-0.3671875-0.1132812v-0.0556641H105.8251953z"/>
		<path fill="#B59758" stroke="#B59758" stroke-width="0.5" stroke-miterlimit="10" d="M111.5957031,47.9560547
			c0,0.4580078-0.1132812,0.8837891-0.3398438,1.2783203c-0.2275391,0.3935547-0.5361328,0.7080078-0.9287109,0.9414062
			c-0.3916016,0.2333984-0.8251953,0.3496094-1.3007812,0.3496094c-0.4785156,0-0.9169922-0.1162109-1.3154297-0.3496094
			s-0.7119141-0.5488281-0.9414062-0.9453125c-0.2285156-0.3955078-0.34375-0.8271484-0.34375-1.2949219
			c0-0.3583984,0.0683594-0.6953125,0.2050781-1.0107422c0.1357422-0.3154297,0.3261719-0.5908203,0.5703125-0.8251953
			c0.2451172-0.234375,0.5234375-0.4160156,0.8369141-0.5439453c0.3134766-0.1289062,0.640625-0.1933594,0.9814453-0.1933594
			c0.3339844,0,0.6552734,0.0615234,0.9628906,0.1845703s0.5839844,0.3007812,0.828125,0.5332031
			c0.2451172,0.2324219,0.4365234,0.5078125,0.5761719,0.8261719
			C111.5263672,47.2255859,111.5957031,47.5751953,111.5957031,47.9560547z M111.0117188,47.96875
			c0-0.6503906-0.1152344-1.1591797-0.3457031-1.5273438c-0.2304688-0.3671875-0.4960938-0.6132812-0.796875-0.7382812
			s-0.5839844-0.1875-0.8496094-0.1875c-0.2060547,0-0.4199219,0.0332031-0.640625,0.1005859
			c-0.2216797,0.0683594-0.4375,0.1914062-0.6464844,0.3710938c-0.2089844,0.1787109-0.3808594,0.4316406-0.515625,0.7568359
			c-0.1357422,0.3251953-0.203125,0.7265625-0.203125,1.2050781c0,0.4208984,0.0556641,0.7871094,0.1679688,1.1005859
			c0.1113281,0.3134766,0.265625,0.5693359,0.4609375,0.7666016c0.1962891,0.1982422,0.4121094,0.3417969,0.6484375,0.4287109
			c0.2353516,0.0878906,0.4804688,0.1308594,0.7353516,0.1308594c0.2275391,0,0.4580078-0.0400391,0.6923828-0.1210938
			c0.2333984-0.0800781,0.4462891-0.2119141,0.640625-0.3945312c0.1933594-0.1826172,0.3505859-0.4306641,0.4707031-0.7441406
			C110.9511719,48.8027344,111.0117188,48.4208984,111.0117188,47.96875z"/>
		<path fill="#B59758" stroke="#B59758" stroke-width="0.5" stroke-miterlimit="10" d="M117.2675781,45.5058594v0.0556641
			c-0.1240234,0.015625-0.2226562,0.0400391-0.2939453,0.0712891c-0.0722656,0.0322266-0.1279297,0.0957031-0.1679688,0.1894531
			c-0.0400391,0.0947266-0.0595703,0.2294922-0.0595703,0.4072266v4.2900391h-0.0332031l-3.7558594-4.1904297v3.0078125
			c0,0.25,0.0107422,0.4365234,0.0302734,0.5576172c0.0195312,0.1220703,0.0488281,0.2099609,0.0859375,0.2626953
			c0.0820312,0.1152344,0.2246094,0.1767578,0.4287109,0.1855469v0.0537109h-1.2255859v-0.0537109
			c0.1376953-0.0058594,0.2441406-0.0351562,0.3203125-0.0878906c0.0771484-0.0517578,0.1308594-0.1464844,0.1630859-0.2851562
			s0.0478516-0.3466797,0.0478516-0.6259766v-3.1904297l-0.1621094-0.1826172
			c-0.1445312-0.1640625-0.2587891-0.2675781-0.3457031-0.3105469c-0.0859375-0.0439453-0.1933594-0.0761719-0.3222656-0.0986328
			v-0.0556641h0.9199219l3.6992188,4.1435547v-3.1582031c0-0.2363281-0.0097656-0.4130859-0.0283203-0.53125
			c-0.0185547-0.1171875-0.0683594-0.2109375-0.1494141-0.2822266c-0.0810547-0.0703125-0.2080078-0.109375-0.3798828-0.1162109
			v-0.0556641H117.2675781z"/>
		<path fill="#B59758" stroke="#B59758" stroke-width="0.5" stroke-miterlimit="10" d="M119.6210938,45.4453125l1.4638672,4.1904297
			c0.078125,0.2167969,0.1513672,0.3740234,0.2197266,0.4716797s0.1337891,0.1591797,0.1972656,0.1845703
			s0.1435547,0.0419922,0.2412109,0.0507812v0.0537109h-1.5976562v-0.0537109c0.1640625,0,0.2900391-0.0146484,0.3789062-0.0458984
			c0.0878906-0.03125,0.1328125-0.1152344,0.1328125-0.2529297c0-0.0751953-0.0214844-0.1757812-0.0634766-0.3017578
			c-0.0087891-0.0175781-0.0126953-0.03125-0.0126953-0.0400391l-0.4355469-1.2978516h-1.6933594l-0.3886719,1.2021484
			c-0.0527344,0.1630859-0.0791016,0.2949219-0.0791016,0.3945312c0,0.1376953,0.0341797,0.2285156,0.1025391,0.2744141
			c0.0683594,0.0449219,0.1660156,0.0673828,0.2919922,0.0673828v0.0537109h-1.1484375v-0.0537109
			c0.1640625-0.0146484,0.2949219-0.078125,0.3935547-0.1875s0.1845703-0.2753906,0.2568359-0.4990234l1.3818359-4.2109375
			H119.6210938z M118.5087891,48.2285156h1.5576172l-0.796875-2.3212891h-0.0136719L118.5087891,48.2285156z"/>
		<path fill="#B59758" stroke="#B59758" stroke-width="0.5" stroke-miterlimit="10" d="M122.078125,50.3427734h0.0664062
			c0.1201172,0,0.2255859-0.046875,0.3173828-0.140625s0.1376953-0.2265625,0.1376953-0.3964844v-3.6923828
			c0-0.2041016-0.0507812-0.3457031-0.1542969-0.4248047c-0.1025391-0.0800781-0.2255859-0.1220703-0.3671875-0.1269531v-0.0556641
			h1.5644531v0.0556641c-0.1376953,0.0048828-0.2587891,0.0458984-0.3652344,0.1230469
			c-0.1064453,0.078125-0.1591797,0.2207031-0.1591797,0.4287109v3.5693359c0,0.2119141,0.0527344,0.359375,0.1591797,0.4414062
			s0.2802734,0.1230469,0.5214844,0.1230469h0.4208984c0.1845703,0,0.3310547-0.0224609,0.4404297-0.0664062
			c0.109375-0.0449219,0.1962891-0.1123047,0.2607422-0.203125s0.1289062-0.21875,0.1953125-0.3847656h0.0566406
			l-0.1855469,0.8037109h-2.9091797V50.3427734z"/>
	</g>
</g>
</svg>
